<svg xmlns="http://www.w3.org/2000/svg" xmlns:xlink="http://www.w3.org/1999/xlink" width="154" zoomAndPan="magnify" viewBox="0 0 115.5 62.249996" height="83" preserveAspectRatio="xMidYMid meet" version="1.0"><defs><g/><clipPath id="f2fd89f5f2"><path d="M 4.988281 20.046875 L 26.421875 20.046875 L 26.421875 41.480469 L 4.988281 41.480469 Z M 4.988281 20.046875 " clip-rule="nonzero"/></clipPath><clipPath id="1c698fe44b"><path d="M 0.441406 15 L 31 15 L 31 46 L 0.441406 46 Z M 0.441406 15 " clip-rule="nonzero"/></clipPath><clipPath id="3715f1b50d"><path d="M 0.550781 30.765625 L 15.703125 15.609375 L 30.859375 30.765625 L 15.703125 45.921875 Z M 0.550781 30.765625 " clip-rule="nonzero"/></clipPath><clipPath id="1856757251"><path d="M 0.550781 30.765625 L 15.703125 15.609375 L 30.859375 30.765625 L 15.703125 45.921875 Z M 0.550781 30.765625 " clip-rule="nonzero"/></clipPath><clipPath id="052acd9484"><path d="M 5 20 L 26 20 L 26 42 L 5 42 Z M 5 20 " clip-rule="nonzero"/></clipPath><clipPath id="997f753a29"><path d="M 10.976562 18.171875 L 28.433594 26.332031 L 20.273438 43.785156 L 2.816406 35.625 Z M 10.976562 18.171875 " clip-rule="nonzero"/></clipPath><clipPath id="37dfcc172a"><path d="M 10.976562 18.171875 L 28.433594 26.332031 L 20.273438 43.785156 L 2.816406 35.625 Z M 10.976562 18.171875 " clip-rule="nonzero"/></clipPath></defs><g fill="#000000" fill-opacity="1"><g transform="translate(30.860438, 28.169197)"><g><path d="M 6.484375 0.21875 C 9.574219 0.21875 11.304688 -1.328125 11.84375 -4.03125 L 10.078125 -4.03125 C 9.960938 -3.074219 9.660156 -2.300781 9.253906 -1.628906 C 8.652344 -1.328125 7.527344 -1.125 6.667969 -1.125 C 3.980469 -1.125 2.46875 -2.90625 2.46875 -6.265625 C 2.46875 -8.28125 2.820312 -9.878906 3.476562 -10.933594 C 4.183594 -11.40625 5.308594 -11.640625 6.28125 -11.640625 C 8.484375 -11.640625 9.757812 -10.429688 10.195312 -8.0625 L 11.945312 -8.28125 C 11.457031 -11.269531 9.777344 -12.984375 6.484375 -12.984375 C 2.703125 -12.984375 0.6875 -10.667969 0.6875 -6.398438 C 0.6875 -2.101562 2.6875 0.21875 6.484375 0.21875 Z M 6.484375 0.21875 "/></g></g></g><g fill="#000000" fill-opacity="1"><g transform="translate(43.322055, 28.169197)"><g><path d="M 2.03125 0 L 3.074219 0 L 3.074219 -0.285156 C 3.058594 -1.847656 3.023438 -4.652344 3.023438 -6.652344 C 3.023438 -8.75 3.023438 -10.734375 3.074219 -12.867188 L 1.242188 -12.714844 C 1.277344 -10.683594 1.308594 -8.582031 1.308594 -6.484375 C 1.308594 -4.769531 1.292969 -1.714844 1.261719 -0.015625 C 1.746094 0 1.410156 0 2.03125 0 Z M 2.03125 0 "/></g></g></g><g fill="#000000" fill-opacity="1"><g transform="translate(47.319146, 28.169197)"><g><path d="M 3.710938 0.234375 C 5.964844 0.234375 7.507812 -1.445312 7.945312 -3.058594 L 8.113281 -3.058594 L 7.828125 0 L 9.640625 0 C 9.640625 -0.707031 9.640625 -1.578125 9.625 -2.621094 C 9.609375 -3.695312 9.589844 -4.5 9.589844 -5.710938 C 9.574219 -8.96875 8.414062 -10.699219 5.460938 -10.699219 C 2.585938 -10.699219 1.226562 -9.339844 0.707031 -6.921875 L 2.417969 -6.601562 C 2.605469 -7.558594 2.972656 -8.367188 3.425781 -8.820312 C 3.863281 -9.070312 4.484375 -9.324219 5.125 -9.324219 C 7.441406 -9.324219 7.84375 -7.8125 7.863281 -5.796875 L 7.863281 -5.578125 C 6.785156 -5.628906 5.945312 -5.660156 5.542969 -5.660156 C 2.988281 -5.660156 0.605469 -4.738281 0.605469 -2.4375 C 0.605469 -0.90625 1.832031 0.234375 3.710938 0.234375 Z M 4.453125 -1.140625 C 3.109375 -1.140625 2.316406 -1.613281 2.316406 -2.839844 C 2.316406 -4.703125 4.90625 -4.835938 6.015625 -4.835938 C 6.566406 -4.835938 7.324219 -4.820312 7.878906 -4.789062 L 7.878906 -3.863281 C 7.542969 -3.039062 6.148438 -1.140625 4.453125 -1.140625 Z M 4.453125 -1.140625 "/></g></g></g><g fill="#000000" fill-opacity="1"><g transform="translate(58.000524, 28.169197)"><g><path d="M 10.3125 -10.53125 L 8.433594 -10.53125 C 8.5 -8.9375 8.5 -7.945312 8.5 -6.148438 L 8.5 -3.996094 C 7.828125 -2.199219 6.550781 -1.074219 5.15625 -1.074219 C 3.039062 -1.074219 2.988281 -3.492188 2.988281 -5.039062 C 2.988281 -8.246094 3.007812 -9.085938 3.039062 -10.53125 L 1.210938 -10.53125 C 1.261719 -9.542969 1.261719 -5.425781 1.292969 -4.066406 C 1.359375 -1.410156 2.015625 0.234375 4.402344 0.234375 C 6.265625 0.234375 7.828125 -0.773438 8.515625 -2.570312 L 8.683594 -2.570312 L 8.433594 0 L 10.28125 0 C 10.230469 -1.679688 10.230469 -3.511719 10.230469 -5.273438 C 10.230469 -7.140625 10.230469 -8.871094 10.3125 -10.53125 Z M 10.3125 -10.53125 "/></g></g></g><g fill="#000000" fill-opacity="1"><g transform="translate(69.353691, 28.169197)"><g><path d="M 8.398438 0 L 10.246094 0 C 10.214844 -1.613281 10.195312 -3.527344 10.195312 -5.507812 C 10.195312 -8.078125 10.214844 -10.617188 10.230469 -12.867188 L 8.464844 -12.714844 C 8.464844 -11.976562 8.484375 -11.070312 8.5 -10.261719 C 8.582031 -9.390625 8.617188 -9.171875 8.667969 -8.011719 L 8.5 -8.011719 C 8.164062 -9.390625 6.71875 -10.734375 4.769531 -10.734375 C 2 -10.734375 0.605469 -8.449219 0.605469 -5.273438 C 0.605469 -1.863281 1.949219 0.21875 4.417969 0.21875 C 6.433594 0.21875 7.84375 -1.074219 8.484375 -2.738281 L 8.632812 -2.738281 C 8.601562 -2.484375 8.433594 -0.488281 8.398438 0 Z M 5.257812 -1.09375 C 2.871094 -1.09375 2.367188 -3.898438 2.367188 -5.292969 C 2.367188 -6.617188 2.671875 -7.945312 3.191406 -8.820312 C 3.796875 -9.222656 4.535156 -9.457031 5.324219 -9.457031 C 6.835938 -9.457031 8.484375 -8.128906 8.484375 -5.863281 L 8.484375 -3.710938 C 7.8125 -2.132812 6.804688 -1.09375 5.257812 -1.09375 Z M 5.257812 -1.09375 "/></g></g></g><g fill="#000000" fill-opacity="1"><g transform="translate(80.639677, 28.169197)"><g><path d="M 2.101562 -11.589844 C 2.957031 -11.589844 3.226562 -11.910156 3.226562 -12.582031 C 3.226562 -13.167969 2.957031 -13.488281 2.101562 -13.488281 C 1.242188 -13.488281 0.972656 -13.167969 0.972656 -12.582031 C 0.972656 -11.910156 1.242188 -11.589844 2.101562 -11.589844 Z M 1.191406 0 L 3.023438 0 C 2.988281 -1.511719 2.972656 -3.257812 2.972656 -4.972656 C 2.972656 -6.753906 2.988281 -9.054688 3.023438 -10.566406 C 2.789062 -10.566406 2.484375 -10.53125 2.101562 -10.53125 C 1.730469 -10.53125 1.429688 -10.566406 1.191406 -10.566406 C 1.242188 -8.835938 1.261719 -6.734375 1.261719 -4.972656 C 1.261719 -3.308594 1.242188 -1.746094 1.191406 0 Z M 1.191406 0 "/></g></g></g><g fill="#000000" fill-opacity="1"><g transform="translate(84.703942, 28.169197)"><g><path d="M 3.710938 0.234375 C 5.964844 0.234375 7.507812 -1.445312 7.945312 -3.058594 L 8.113281 -3.058594 L 7.828125 0 L 9.640625 0 C 9.640625 -0.707031 9.640625 -1.578125 9.625 -2.621094 C 9.609375 -3.695312 9.589844 -4.5 9.589844 -5.710938 C 9.574219 -8.96875 8.414062 -10.699219 5.460938 -10.699219 C 2.585938 -10.699219 1.226562 -9.339844 0.707031 -6.921875 L 2.417969 -6.601562 C 2.605469 -7.558594 2.972656 -8.367188 3.425781 -8.820312 C 3.863281 -9.070312 4.484375 -9.324219 5.125 -9.324219 C 7.441406 -9.324219 7.84375 -7.8125 7.863281 -5.796875 L 7.863281 -5.578125 C 6.785156 -5.628906 5.945312 -5.660156 5.542969 -5.660156 C 2.988281 -5.660156 0.605469 -4.738281 0.605469 -2.4375 C 0.605469 -0.90625 1.832031 0.234375 3.710938 0.234375 Z M 4.453125 -1.140625 C 3.109375 -1.140625 2.316406 -1.613281 2.316406 -2.839844 C 2.316406 -4.703125 4.90625 -4.835938 6.015625 -4.835938 C 6.566406 -4.835938 7.324219 -4.820312 7.878906 -4.789062 L 7.878906 -3.863281 C 7.542969 -3.039062 6.148438 -1.140625 4.453125 -1.140625 Z M 4.453125 -1.140625 "/></g></g></g><g fill="#000000" fill-opacity="1"><g transform="translate(30.860438, 44.859614)"><g><path d="M 1.394531 0 L 3.074219 0 C 3.039062 -1.914062 3.058594 -3.964844 3.058594 -6.03125 L 3.109375 -11.152344 L 3.242188 -11.152344 L 7.390625 0 L 9.085938 0 L 13.203125 -11.136719 L 13.355469 -11.136719 C 13.371094 -9.507812 13.386719 -7.695312 13.386719 -6.046875 C 13.40625 -3.964844 13.386719 -1.933594 13.386719 0 L 15.066406 0 C 15 -2.417969 14.949219 -4.972656 14.949219 -7.476562 C 14.949219 -9.253906 14.96875 -11.035156 15 -12.816406 L 12.28125 -12.816406 L 8.316406 -1.898438 L 8.164062 -1.898438 L 4.183594 -12.816406 L 1.460938 -12.816406 C 1.460938 -11.222656 1.496094 -9.136719 1.496094 -7.476562 C 1.496094 -4.972656 1.445312 -2.4375 1.394531 0 Z M 1.394531 0 "/></g></g></g><g fill="#000000" fill-opacity="1"><g transform="translate(47.151249, 44.859614)"><g><path d="M 7.8125 -1.765625 C 7.257812 -1.378906 6.433594 -1.09375 5.542969 -1.09375 C 3.644531 -1.09375 2.367188 -2.585938 2.335938 -5.054688 L 10.230469 -5.558594 L 10.246094 -5.558594 C 10.09375 -8.871094 8.550781 -10.75 5.59375 -10.75 C 2.386719 -10.75 0.605469 -8.769531 0.605469 -5.222656 C 0.605469 -1.765625 2.25 0.203125 5.441406 0.203125 C 8.199219 0.203125 9.742188 -1.140625 10.179688 -3.710938 L 8.449219 -3.761719 C 8.316406 -3.039062 8.097656 -2.285156 7.8125 -1.765625 Z M 5.476562 -9.457031 C 7.191406 -9.457031 8.214844 -8.246094 8.484375 -6.265625 L 2.351562 -5.914062 C 2.402344 -6.886719 2.535156 -7.726562 2.90625 -8.414062 C 3.476562 -9.039062 4.46875 -9.457031 5.476562 -9.457031 Z M 5.476562 -9.457031 "/></g></g></g><g fill="#000000" fill-opacity="1"><g transform="translate(57.849425, 44.859614)"><g><path d="M 1.191406 0 L 3.058594 0 C 2.988281 -1.597656 2.988281 -2.570312 2.988281 -4.351562 L 2.988281 -6.636719 C 3.679688 -8.414062 4.820312 -9.457031 6.351562 -9.457031 C 8.449219 -9.457031 8.5 -7.039062 8.5 -5.492188 C 8.5 -3.511719 8.515625 -2.21875 8.464844 0 L 10.296875 0 C 10.246094 -0.992188 10.246094 -5.105469 10.214844 -6.449219 C 10.144531 -9.121094 9.421875 -10.75 7.023438 -10.75 C 5.125 -10.75 3.695312 -9.757812 2.972656 -7.945312 L 2.820312 -7.945312 L 3.058594 -10.53125 L 1.226562 -10.53125 C 1.277344 -8.851562 1.277344 -7.023438 1.277344 -5.257812 C 1.277344 -3.394531 1.277344 -1.664062 1.191406 0 Z M 1.191406 0 "/></g></g></g><g fill="#000000" fill-opacity="1"><g transform="translate(69.1858, 44.859614)"><g><path d="M 8.398438 0 L 10.246094 0 C 10.214844 -1.613281 10.195312 -3.527344 10.195312 -5.507812 C 10.195312 -8.078125 10.214844 -10.617188 10.230469 -12.867188 L 8.464844 -12.714844 C 8.464844 -11.976562 8.484375 -11.070312 8.5 -10.261719 C 8.582031 -9.390625 8.617188 -9.171875 8.667969 -8.011719 L 8.5 -8.011719 C 8.164062 -9.390625 6.71875 -10.734375 4.769531 -10.734375 C 2 -10.734375 0.605469 -8.449219 0.605469 -5.273438 C 0.605469 -1.863281 1.949219 0.21875 4.417969 0.21875 C 6.433594 0.21875 7.84375 -1.074219 8.484375 -2.738281 L 8.632812 -2.738281 C 8.601562 -2.484375 8.433594 -0.488281 8.398438 0 Z M 5.257812 -1.09375 C 2.871094 -1.09375 2.367188 -3.898438 2.367188 -5.292969 C 2.367188 -6.617188 2.671875 -7.945312 3.191406 -8.820312 C 3.796875 -9.222656 4.535156 -9.457031 5.324219 -9.457031 C 6.835938 -9.457031 8.484375 -8.128906 8.484375 -5.863281 L 8.484375 -3.710938 C 7.8125 -2.132812 6.804688 -1.09375 5.257812 -1.09375 Z M 5.257812 -1.09375 "/></g></g></g><g fill="#000000" fill-opacity="1"><g transform="translate(80.47179, 44.859614)"><g><path d="M 7.8125 -1.765625 C 7.257812 -1.378906 6.433594 -1.09375 5.542969 -1.09375 C 3.644531 -1.09375 2.367188 -2.585938 2.335938 -5.054688 L 10.230469 -5.558594 L 10.246094 -5.558594 C 10.09375 -8.871094 8.550781 -10.75 5.59375 -10.75 C 2.386719 -10.75 0.605469 -8.769531 0.605469 -5.222656 C 0.605469 -1.765625 2.25 0.203125 5.441406 0.203125 C 8.199219 0.203125 9.742188 -1.140625 10.179688 -3.710938 L 8.449219 -3.761719 C 8.316406 -3.039062 8.097656 -2.285156 7.8125 -1.765625 Z M 5.476562 -9.457031 C 7.191406 -9.457031 8.214844 -8.246094 8.484375 -6.265625 L 2.351562 -5.914062 C 2.402344 -6.886719 2.535156 -7.726562 2.90625 -8.414062 C 3.476562 -9.039062 4.46875 -9.457031 5.476562 -9.457031 Z M 5.476562 -9.457031 "/></g></g></g><g fill="#000000" fill-opacity="1"><g transform="translate(91.169962, 44.859614)"><g><path d="M 9.136719 0 L 9.136719 -1.496094 L 4.164062 -1.496094 C 3.460938 -1.496094 2.636719 -1.476562 1.914062 -1.429688 L 1.914062 -1.578125 C 4.300781 -4.082031 6.484375 -6.585938 8.96875 -9.070312 L 8.96875 -10.53125 L 0.335938 -10.53125 L 0.335938 -9.003906 L 5.359375 -9.019531 C 6.398438 -9.019531 6.601562 -9.039062 7.257812 -9.070312 L 7.257812 -8.902344 C 4.90625 -6.433594 2.652344 -3.980469 0.300781 -1.511719 L 0.300781 0 Z M 9.136719 0 "/></g></g></g><g clip-path="url(#f2fd89f5f2)"><path fill="#fd883d" d="M 4.988281 20.046875 L 26.421875 20.046875 L 26.421875 41.480469 L 4.988281 41.480469 Z M 4.988281 20.046875 " fill-opacity="1" fill-rule="nonzero"/></g><g clip-path="url(#1c698fe44b)"><g clip-path="url(#3715f1b50d)"><g clip-path="url(#1856757251)"><path fill="#fd883d" d="M 0.550781 30.765625 L 15.703125 15.609375 L 30.859375 30.765625 L 15.703125 45.921875 Z M 0.550781 30.765625 " fill-opacity="1" fill-rule="nonzero"/></g></g></g><g clip-path="url(#052acd9484)"><g clip-path="url(#997f753a29)"><g clip-path="url(#37dfcc172a)"><path fill="#ffffff" d="M 22.9375 38.070312 C 22.484375 36.976562 21.648438 35.191406 20.359375 33.238281 C 22.667969 32.863281 24.546875 32.265625 25.660156 31.859375 C 26.082031 31.707031 26.09375 31.113281 25.675781 30.941406 C 24.585938 30.492188 22.730469 29.820312 20.4375 29.347656 C 21.804688 27.449219 22.714844 25.699219 23.210938 24.628906 C 23.402344 24.21875 22.992188 23.792969 22.574219 23.964844 C 21.484375 24.417969 19.699219 25.253906 17.746094 26.542969 C 17.367188 24.234375 16.773438 22.351562 16.367188 21.242188 C 16.210938 20.820312 15.621094 20.808594 15.449219 21.222656 C 14.996094 22.316406 14.324219 24.171875 13.855469 26.460938 C 11.957031 25.097656 10.207031 24.1875 9.132812 23.691406 C 8.726562 23.5 8.296875 23.910156 8.472656 24.328125 C 8.925781 25.417969 9.761719 27.203125 11.046875 29.15625 C 8.742188 29.53125 6.859375 30.128906 5.75 30.535156 C 5.324219 30.691406 5.3125 31.28125 5.730469 31.453125 C 6.824219 31.90625 8.679688 32.578125 10.96875 33.046875 C 9.601562 34.945312 8.695312 36.695312 8.195312 37.769531 C 8.007812 38.175781 8.417969 38.605469 8.832031 38.429688 C 9.925781 37.976562 11.710938 37.140625 13.664062 35.851562 C 14.039062 38.160156 14.636719 40.042969 15.042969 41.152344 C 15.195312 41.574219 15.789062 41.585938 15.960938 41.171875 C 16.410156 40.078125 17.082031 38.222656 17.554688 35.933594 C 19.449219 37.300781 21.203125 38.207031 22.273438 38.707031 C 22.683594 38.894531 23.109375 38.484375 22.9375 38.070312 Z M 14.855469 33.011719 C 13.855469 32.542969 13.421875 31.351562 13.890625 30.351562 C 14.359375 29.347656 15.550781 28.917969 16.550781 29.382812 C 17.554688 29.851562 17.984375 31.042969 17.515625 32.046875 C 17.050781 33.046875 15.859375 33.480469 14.855469 33.011719 Z M 14.855469 33.011719 " fill-opacity="1" fill-rule="nonzero"/></g></g></g></svg>